<mxfile host="app.diagrams.net" modified="2024-04-03T00:51:41.211Z" agent="Mozilla/5.0 (Windows NT 10.0; Win64; x64) AppleWebKit/537.36 (KHTML, like Gecko) Chrome/123.0.0.0 Safari/537.36" etag="5sH8Y9g8CS5PF8nH9S3m" version="24.2.1" type="github">
  <diagram name="Página-1" id="4vIXYa6SFfBtht6YiKSe">
    <mxGraphModel dx="1434" dy="772" grid="1" gridSize="10" guides="1" tooltips="1" connect="1" arrows="1" fold="1" page="1" pageScale="1" pageWidth="827" pageHeight="1169" math="0" shadow="0">
      <root>
        <mxCell id="0" />
        <mxCell id="1" parent="0" />
        <mxCell id="-xtAZJZc0LSrTzCeKRAl-12" value="" style="rounded=0;whiteSpace=wrap;html=1;dashed=1;fillColor=none;" vertex="1" parent="1">
          <mxGeometry x="119" y="277.5" width="590" height="230" as="geometry" />
        </mxCell>
        <mxCell id="-xtAZJZc0LSrTzCeKRAl-11" value="" style="rounded=0;whiteSpace=wrap;html=1;dashed=1;fillColor=none;" vertex="1" parent="1">
          <mxGeometry x="119" y="60" width="590" height="180" as="geometry" />
        </mxCell>
        <mxCell id="-xtAZJZc0LSrTzCeKRAl-1" value="Sensor de velocidade do Carro" style="rounded=0;whiteSpace=wrap;html=1;" vertex="1" parent="1">
          <mxGeometry x="189" y="397.5" width="130" height="70" as="geometry" />
        </mxCell>
        <mxCell id="-xtAZJZc0LSrTzCeKRAl-4" value="Sensor de posição do Carro" style="rounded=0;whiteSpace=wrap;html=1;" vertex="1" parent="1">
          <mxGeometry x="375" y="397.5" width="106" height="70" as="geometry" />
        </mxCell>
        <mxCell id="-xtAZJZc0LSrTzCeKRAl-5" value="Display de informações/velocidade sugerida" style="rounded=0;whiteSpace=wrap;html=1;" vertex="1" parent="1">
          <mxGeometry x="539" y="397.5" width="150" height="70" as="geometry" />
        </mxCell>
        <mxCell id="-xtAZJZc0LSrTzCeKRAl-6" value="Reprodutor som para aviso sonoro" style="rounded=0;whiteSpace=wrap;html=1;" vertex="1" parent="1">
          <mxGeometry x="539" y="300" width="150" height="70" as="geometry" />
        </mxCell>
        <mxCell id="-xtAZJZc0LSrTzCeKRAl-7" value="Antena para comunicação com as torres (módulos&amp;nbsp;fixos)" style="rounded=0;whiteSpace=wrap;html=1;" vertex="1" parent="1">
          <mxGeometry x="139" y="300" width="180" height="70" as="geometry" />
        </mxCell>
        <mxCell id="-xtAZJZc0LSrTzCeKRAl-8" value="Antena para comunicação com outras torres (módulos&amp;nbsp;fixos) e com os módulos móveis" style="rounded=0;whiteSpace=wrap;html=1;" vertex="1" parent="1">
          <mxGeometry x="183" y="115" width="180" height="70" as="geometry" />
        </mxCell>
        <mxCell id="-xtAZJZc0LSrTzCeKRAl-18" style="edgeStyle=orthogonalEdgeStyle;rounded=0;orthogonalLoop=1;jettySize=auto;html=1;exitX=0;exitY=0.5;exitDx=0;exitDy=0;entryX=1;entryY=0.5;entryDx=0;entryDy=0;" edge="1" parent="1" source="-xtAZJZc0LSrTzCeKRAl-9" target="-xtAZJZc0LSrTzCeKRAl-8">
          <mxGeometry relative="1" as="geometry" />
        </mxCell>
        <mxCell id="-xtAZJZc0LSrTzCeKRAl-9" value="Unidade processadora/controladora" style="rounded=0;whiteSpace=wrap;html=1;" vertex="1" parent="1">
          <mxGeometry x="459" y="127.5" width="160" height="45" as="geometry" />
        </mxCell>
        <mxCell id="-xtAZJZc0LSrTzCeKRAl-19" style="edgeStyle=orthogonalEdgeStyle;rounded=0;orthogonalLoop=1;jettySize=auto;html=1;exitX=0;exitY=0.5;exitDx=0;exitDy=0;entryX=1;entryY=0.5;entryDx=0;entryDy=0;" edge="1" parent="1" source="-xtAZJZc0LSrTzCeKRAl-10" target="-xtAZJZc0LSrTzCeKRAl-7">
          <mxGeometry relative="1" as="geometry" />
        </mxCell>
        <mxCell id="-xtAZJZc0LSrTzCeKRAl-21" style="edgeStyle=orthogonalEdgeStyle;rounded=0;orthogonalLoop=1;jettySize=auto;html=1;exitX=0.5;exitY=1;exitDx=0;exitDy=0;entryX=0.5;entryY=0;entryDx=0;entryDy=0;" edge="1" parent="1" source="-xtAZJZc0LSrTzCeKRAl-10" target="-xtAZJZc0LSrTzCeKRAl-4">
          <mxGeometry relative="1" as="geometry" />
        </mxCell>
        <mxCell id="-xtAZJZc0LSrTzCeKRAl-22" style="edgeStyle=orthogonalEdgeStyle;rounded=0;orthogonalLoop=1;jettySize=auto;html=1;exitX=1;exitY=1;exitDx=0;exitDy=0;entryX=0;entryY=0.5;entryDx=0;entryDy=0;" edge="1" parent="1" source="-xtAZJZc0LSrTzCeKRAl-10" target="-xtAZJZc0LSrTzCeKRAl-5">
          <mxGeometry relative="1" as="geometry">
            <Array as="points">
              <mxPoint x="499" y="357.5" />
              <mxPoint x="499" y="432.5" />
            </Array>
          </mxGeometry>
        </mxCell>
        <mxCell id="-xtAZJZc0LSrTzCeKRAl-24" style="edgeStyle=orthogonalEdgeStyle;rounded=0;orthogonalLoop=1;jettySize=auto;html=1;exitX=0.25;exitY=1;exitDx=0;exitDy=0;entryX=0.994;entryY=0.58;entryDx=0;entryDy=0;entryPerimeter=0;" edge="1" parent="1" source="-xtAZJZc0LSrTzCeKRAl-10" target="-xtAZJZc0LSrTzCeKRAl-1">
          <mxGeometry relative="1" as="geometry">
            <Array as="points">
              <mxPoint x="359" y="357.5" />
              <mxPoint x="359" y="437.5" />
              <mxPoint x="318" y="437.5" />
            </Array>
          </mxGeometry>
        </mxCell>
        <mxCell id="-xtAZJZc0LSrTzCeKRAl-25" style="edgeStyle=orthogonalEdgeStyle;rounded=0;orthogonalLoop=1;jettySize=auto;html=1;exitX=1;exitY=0.5;exitDx=0;exitDy=0;entryX=0;entryY=0.5;entryDx=0;entryDy=0;" edge="1" parent="1" source="-xtAZJZc0LSrTzCeKRAl-10" target="-xtAZJZc0LSrTzCeKRAl-6">
          <mxGeometry relative="1" as="geometry" />
        </mxCell>
        <mxCell id="-xtAZJZc0LSrTzCeKRAl-10" value="Unidade processadora/controladora" style="rounded=0;whiteSpace=wrap;html=1;" vertex="1" parent="1">
          <mxGeometry x="348" y="312.5" width="160" height="45" as="geometry" />
        </mxCell>
        <mxCell id="-xtAZJZc0LSrTzCeKRAl-13" value="Módulo fixo" style="text;html=1;align=center;verticalAlign=middle;resizable=0;points=[];autosize=1;strokeColor=none;fillColor=none;" vertex="1" parent="1">
          <mxGeometry x="119" y="210" width="80" height="30" as="geometry" />
        </mxCell>
        <mxCell id="-xtAZJZc0LSrTzCeKRAl-15" value="Módulo móvel" style="text;html=1;align=center;verticalAlign=middle;resizable=0;points=[];autosize=1;strokeColor=none;fillColor=none;" vertex="1" parent="1">
          <mxGeometry x="119" y="477.5" width="100" height="30" as="geometry" />
        </mxCell>
      </root>
    </mxGraphModel>
  </diagram>
</mxfile>
